<?xml version="1.0" encoding="UTF-8" standalone="no"?>
<!DOCTYPE svg PUBLIC "-//W3C//DTD SVG 1.1//EN" "http://www.w3.org/Graphics/SVG/1.1/DTD/svg11.dtd">
<svg version="1.1" xmlns="http://www.w3.org/2000/svg" xmlns:xlink="http://www.w3.org/1999/xlink" preserveAspectRatio="xMidYMid meet" viewBox="0 0 640 640" width="640" height="640"><defs><path d="M-24.31 -12.65L662.59 -12.65L662.59 660.44L-24.31 660.44L-24.31 -12.65Z" id="d3eqa6fDa"></path><path d="M87.73 99.85L208.18 206.67L228.64 232.8L228.64 262.35L245.68 246.44L247.95 215.76L225.23 179.39L132.05 99.85L105.86 56.28L84.24 24.74L49.1 63.48L38.29 112.13L62.73 86.21L87.73 99.85Z" id="agDiAf3Y1"></path><path d="M87.73 99.85L208.18 206.67L228.64 232.8L228.64 262.35L245.68 246.44L247.95 215.76L225.23 179.39L132.05 99.85L105.86 56.28L84.24 24.74L49.1 63.48L38.29 112.13L62.73 86.21L87.73 99.85Z" id="a1sMUMZvrd"></path><path d="M87.73 97.57L60.45 86.21L38.29 111.21L45.68 146.44L220.68 265.76L228.64 262.35L228.64 224.85L87.73 97.57Z" id="e1yOLrxtSA"></path><path d="M87.73 97.57L60.45 86.21L38.29 111.21L45.68 146.44L220.68 265.76L228.64 262.35L228.64 224.85L87.73 97.57Z" id="b1ECrpZB0Q"></path><path d="M548.09 517.95L573.7 517.95L493.21 552.1L444.43 526.49L413.94 483.8L444.43 415.51L484.68 465.51L548.09 517.95Z" id="e1B9zDWFEr"></path><path d="M548.09 517.95L573.7 517.95L493.21 552.1L444.43 526.49L413.94 483.8L444.43 415.51L484.68 465.51L548.09 517.95Z" id="aOkJaf85"></path><path d="M549.31 516.73L573.7 516.73L585.9 483.8L573.7 466.73L517.6 437.46L444.43 415.51L484.68 464.29L549.31 516.73Z" id="dJl4n21zQ"></path><path d="M549.31 516.73L573.7 516.73L585.9 483.8L573.7 466.73L517.6 437.46L444.43 415.51L484.68 464.29L549.31 516.73Z" id="djqZetMil"></path><path d="M441.89 223.8L493.82 217.41L532.31 231.24L573.7 231.24L589.76 217.41L599.33 187.63L471.67 168.48L405.71 179.12L416.35 211.03L441.89 223.8Z" id="cBg1RO5Gb"></path><path d="M441.89 223.8L493.82 217.41L532.31 231.24L573.7 231.24L589.76 217.41L599.33 187.63L471.67 168.48L405.71 179.12L416.35 211.03L441.89 223.8Z" id="bm4tPC0Qn"></path><path d="M599.33 187.96L602.28 173.06L573.7 132.64L528.87 101.79L511.85 95.4L493.82 101.79L454.4 132.64L405.71 178.38L472.49 168.48L599.33 187.96Z" id="h1yN6WMzL8"></path><path d="M599.33 187.96L602.28 173.06L573.7 132.64L528.87 101.79L511.85 95.4L493.82 101.79L454.4 132.64L405.71 178.38L472.49 168.48L599.33 187.96Z" id="bnqzFV7Q3"></path><path d="M162.38 531.36L236.85 540.93L195.36 554.76L133.47 540.93L65.57 522.85L50.68 499.44L96.42 513.27L162.38 531.36Z" id="a1YspITmDD"></path><path d="M162.38 531.36L236.85 540.93L195.36 554.76L133.47 540.93L65.57 522.85L50.68 499.44L96.42 513.27L162.38 531.36Z" id="dd7poPfcL"></path><path d="M50.68 499.44L43.56 483.8L50.68 463.28L78.56 455.2L164.73 455.2L247.95 440.39L275.12 459.24L275.12 506.36L236.85 540.02L160.69 530.6L50.68 499.44Z" id="bgjmXhA13"></path><path d="M50.68 499.44L43.56 483.8L50.68 463.28L78.56 455.2L164.73 455.2L247.95 440.39L275.12 459.24L275.12 506.36L236.85 540.02L160.69 530.6L50.68 499.44Z" id="b2NSc1bNs0"></path><path d="M149.36 168.48C149.36 177.25 142.24 184.37 133.47 184.37C124.69 184.37 117.57 177.25 117.57 168.48C117.57 159.71 124.69 152.58 133.47 152.58C142.24 152.58 149.36 159.71 149.36 168.48Z" id="a5a4pbFq8"></path><path d="M525.61 152.58C525.61 161.36 518.49 168.48 509.72 168.48C500.94 168.48 493.82 161.36 493.82 152.58C493.82 143.81 500.94 136.69 509.72 136.69C518.49 136.69 525.61 143.81 525.61 152.58Z" id="cBXxsv1UF"></path><path d="M181.15 499.44C181.15 508.21 174.03 515.33 165.26 515.33C156.48 515.33 149.36 508.21 149.36 499.44C149.36 490.67 156.48 483.54 165.26 483.54C174.03 483.54 181.15 490.67 181.15 499.44Z" id="f7B1ZKNIYF"></path><path d="M509.72 506.1C509.72 514.87 502.59 522 493.82 522C485.05 522 477.93 514.87 477.93 506.1C477.93 497.33 485.05 490.21 493.82 490.21C502.59 490.21 509.72 497.33 509.72 506.1Z" id="apsOfbG93"></path></defs><g><g><g><use xlink:href="#d3eqa6fDa" opacity="1" fill="#aeadc5" fill-opacity="1"></use></g><g><use xlink:href="#agDiAf3Y1" opacity="1" fill="#305aba" fill-opacity="1"></use><g><use xlink:href="#agDiAf3Y1" opacity="1" fill-opacity="0" stroke="#000000" stroke-width="1" stroke-opacity="0"></use></g></g><g><use xlink:href="#a1sMUMZvrd" opacity="1" fill="#000000" fill-opacity="0"></use><g><use xlink:href="#a1sMUMZvrd" opacity="1" fill-opacity="0" stroke="#000000" stroke-width="5" stroke-opacity="1"></use></g></g><g><use xlink:href="#e1yOLrxtSA" opacity="1" fill="#232375" fill-opacity="1"></use><g><use xlink:href="#e1yOLrxtSA" opacity="1" fill-opacity="0" stroke="#000000" stroke-width="1" stroke-opacity="0"></use></g></g><g><use xlink:href="#b1ECrpZB0Q" opacity="1" fill="#000000" fill-opacity="0"></use><g><use xlink:href="#b1ECrpZB0Q" opacity="1" fill-opacity="0" stroke="#000000" stroke-width="5" stroke-opacity="1"></use></g></g><g><use xlink:href="#e1B9zDWFEr" opacity="1" fill="#277e14" fill-opacity="1"></use><g><use xlink:href="#e1B9zDWFEr" opacity="1" fill-opacity="0" stroke="#000000" stroke-width="1" stroke-opacity="0"></use></g></g><g><use xlink:href="#aOkJaf85" opacity="1" fill="#000000" fill-opacity="0"></use><g><use xlink:href="#aOkJaf85" opacity="1" fill-opacity="0" stroke="#000000" stroke-width="5" stroke-opacity="1"></use></g></g><g><use xlink:href="#dJl4n21zQ" opacity="1" fill="#73f15e" fill-opacity="1"></use><g><use xlink:href="#dJl4n21zQ" opacity="1" fill-opacity="0" stroke="#000000" stroke-width="1" stroke-opacity="0"></use></g></g><g><use xlink:href="#djqZetMil" opacity="1" fill="#000000" fill-opacity="0"></use><g><use xlink:href="#djqZetMil" opacity="1" fill-opacity="0" stroke="#000000" stroke-width="5" stroke-opacity="1"></use></g></g><g><use xlink:href="#cBg1RO5Gb" opacity="1" fill="#982c04" fill-opacity="1"></use><g><use xlink:href="#cBg1RO5Gb" opacity="1" fill-opacity="0" stroke="#000000" stroke-width="1" stroke-opacity="0"></use></g></g><g><use xlink:href="#bm4tPC0Qn" opacity="1" fill="#000000" fill-opacity="0"></use><g><use xlink:href="#bm4tPC0Qn" opacity="1" fill-opacity="0" stroke="#000000" stroke-width="5" stroke-opacity="1"></use></g></g><g><use xlink:href="#h1yN6WMzL8" opacity="1" fill="#ff4500" fill-opacity="1"></use><g><use xlink:href="#h1yN6WMzL8" opacity="1" fill-opacity="0" stroke="#000000" stroke-width="1" stroke-opacity="0"></use></g></g><g><use xlink:href="#bnqzFV7Q3" opacity="1" fill="#000000" fill-opacity="0"></use><g><use xlink:href="#bnqzFV7Q3" opacity="1" fill-opacity="0" stroke="#000000" stroke-width="5" stroke-opacity="1"></use></g></g><g><use xlink:href="#a1YspITmDD" opacity="1" fill="#a11ea1" fill-opacity="1"></use><g><use xlink:href="#a1YspITmDD" opacity="1" fill-opacity="0" stroke="#000000" stroke-width="1" stroke-opacity="0"></use></g></g><g><use xlink:href="#dd7poPfcL" opacity="1" fill="#000000" fill-opacity="0"></use><g><use xlink:href="#dd7poPfcL" opacity="1" fill-opacity="0" stroke="#000000" stroke-width="5" stroke-opacity="1"></use></g></g><g><use xlink:href="#bgjmXhA13" opacity="1" fill="#f03edf" fill-opacity="1"></use><g><use xlink:href="#bgjmXhA13" opacity="1" fill-opacity="0" stroke="#000000" stroke-width="1" stroke-opacity="0"></use></g></g><g><use xlink:href="#b2NSc1bNs0" opacity="1" fill="#000000" fill-opacity="0"></use><g><use xlink:href="#b2NSc1bNs0" opacity="1" fill-opacity="0" stroke="#000000" stroke-width="5" stroke-opacity="1"></use></g></g><g><use xlink:href="#a5a4pbFq8" opacity="1" fill="#000000" fill-opacity="1"></use></g><g><use xlink:href="#cBXxsv1UF" opacity="1" fill="#000000" fill-opacity="1"></use></g><g><use xlink:href="#f7B1ZKNIYF" opacity="1" fill="#000000" fill-opacity="1"></use></g><g><use xlink:href="#apsOfbG93" opacity="1" fill="#000000" fill-opacity="1"></use></g></g></g></svg>